<svg id="Layer_1" data-name="Layer 1" xmlns="http://www.w3.org/2000/svg" viewBox="0 0 16 16">
  <rect x="-413.7" y="-411.55" width="843.8" height="843.8" style="fill: none"/>
  <path d="M5.12,14.3a9,9,0,0,0,9.05-9c0-.14,0-.28,0-.41a6.4,6.4,0,0,0,1.59-1.65,6.14,6.14,0,0,1-1.83.5,3.18,3.18,0,0,0,1.4-1.76,6.35,6.35,0,0,1-2,.77A3.18,3.18,0,0,0,7.8,4.88a3.38,3.38,0,0,0,.08.72A9,9,0,0,1,1.33,2.28a3.2,3.2,0,0,0,1,4.25,3.31,3.31,0,0,1-1.44-.4v0A3.19,3.19,0,0,0,3.42,9.29,3.33,3.33,0,0,1,2,9.34a3.21,3.21,0,0,0,3,2.21A6.37,6.37,0,0,1,1,12.91a6.34,6.34,0,0,1-.76,0,9,9,0,0,0,4.87,1.42" style="fill: #265faa"/>
</svg>
